<?xml version="1.0" encoding="utf-8" standalone="no"?>
<!DOCTYPE svg PUBLIC "-//W3C//DTD SVG 1.1//EN"
  "http://www.w3.org/Graphics/SVG/1.1/DTD/svg11.dtd">
<svg xmlns:xlink="http://www.w3.org/1999/xlink" width="517.59425pt" height="335.533219pt" viewBox="0 0 517.59425 335.533219" xmlns="http://www.w3.org/2000/svg" version="1.1">
 <metadata>
  <rdf:RDF xmlns:dc="http://purl.org/dc/elements/1.1/" xmlns:cc="http://creativecommons.org/ns#" xmlns:rdf="http://www.w3.org/1999/02/22-rdf-syntax-ns#">
   <cc:Work>
    <dc:type rdf:resource="http://purl.org/dc/dcmitype/StillImage"/>
    <dc:date>2026-06-09T08:56:51.396851</dc:date>
    <dc:format>image/svg+xml</dc:format>
    <dc:creator>
     <cc:Agent>
      <dc:title>Matplotlib v3.10.9, https://matplotlib.org/</dc:title>
     </cc:Agent>
    </dc:creator>
   </cc:Work>
  </rdf:RDF>
 </metadata>
 <defs>
  <style type="text/css">*{stroke-linejoin: round; stroke-linecap: butt}</style>
 </defs>
 <g id="figure_1">
  <g id="patch_1">
   <path d="M 0 335.533219 
L 517.59425 335.533219 
L 517.59425 0 
L 0 0 
z
" style="fill: #ffffff"/>
  </g>
  <g id="axes_1">
   <g id="patch_2">
    <path d="M 33.17925 114.8715 
L 505.52925 114.8715 
L 505.52925 41.885391 
L 33.17925 41.885391 
z
" style="fill: #ffffff"/>
   </g>
   <g id="matplotlib.axis_1">
    <g id="xtick_1">
     <g id="line2d_1">
      <defs>
       <path id="m04ac6d70ff" d="M 0 0 
L 0 3 
" style="stroke: #4d4d4d; stroke-width: 0.8"/>
      </defs>
      <g>
       <use xlink:href="#m04ac6d70ff" x="33.17925" y="114.8715" style="fill: #4d4d4d; stroke: #4d4d4d; stroke-width: 0.8"/>
      </g>
     </g>
    </g>
    <g id="xtick_2">
     <g id="line2d_2">
      <g>
       <use xlink:href="#m04ac6d70ff" x="92.223" y="114.8715" style="fill: #4d4d4d; stroke: #4d4d4d; stroke-width: 0.8"/>
      </g>
     </g>
    </g>
    <g id="xtick_3">
     <g id="line2d_3">
      <g>
       <use xlink:href="#m04ac6d70ff" x="151.26675" y="114.8715" style="fill: #4d4d4d; stroke: #4d4d4d; stroke-width: 0.8"/>
      </g>
     </g>
    </g>
    <g id="xtick_4">
     <g id="line2d_4">
      <g>
       <use xlink:href="#m04ac6d70ff" x="210.3105" y="114.8715" style="fill: #4d4d4d; stroke: #4d4d4d; stroke-width: 0.8"/>
      </g>
     </g>
    </g>
    <g id="xtick_5">
     <g id="line2d_5">
      <g>
       <use xlink:href="#m04ac6d70ff" x="269.35425" y="114.8715" style="fill: #4d4d4d; stroke: #4d4d4d; stroke-width: 0.8"/>
      </g>
     </g>
    </g>
    <g id="xtick_6">
     <g id="line2d_6">
      <g>
       <use xlink:href="#m04ac6d70ff" x="328.398" y="114.8715" style="fill: #4d4d4d; stroke: #4d4d4d; stroke-width: 0.8"/>
      </g>
     </g>
    </g>
    <g id="xtick_7">
     <g id="line2d_7">
      <g>
       <use xlink:href="#m04ac6d70ff" x="387.44175" y="114.8715" style="fill: #4d4d4d; stroke: #4d4d4d; stroke-width: 0.8"/>
      </g>
     </g>
    </g>
    <g id="xtick_8">
     <g id="line2d_8">
      <g>
       <use xlink:href="#m04ac6d70ff" x="446.4855" y="114.8715" style="fill: #4d4d4d; stroke: #4d4d4d; stroke-width: 0.8"/>
      </g>
     </g>
    </g>
    <g id="xtick_9">
     <g id="line2d_9">
      <g>
       <use xlink:href="#m04ac6d70ff" x="505.52925" y="114.8715" style="fill: #4d4d4d; stroke: #4d4d4d; stroke-width: 0.8"/>
      </g>
     </g>
    </g>
   </g>
   <g id="matplotlib.axis_2">
    <g id="ytick_1">
     <g id="line2d_10">
      <path d="M 33.17925 103.919039 
L 505.52925 103.919039 
" clip-path="url(#p9767d9b3af)" style="fill: none; stroke: #e6e8ec; stroke-opacity: 0.75; stroke-width: 0.55; stroke-linecap: square"/>
     </g>
     <g id="line2d_11">
      <defs>
       <path id="mb1766e2257" d="M 0 0 
L -3 0 
" style="stroke: #4d4d4d; stroke-width: 0.8"/>
      </defs>
      <g>
       <use xlink:href="#mb1766e2257" x="33.17925" y="103.919039" style="fill: #4d4d4d; stroke: #4d4d4d; stroke-width: 0.8"/>
      </g>
     </g>
     <g id="text_1">
      <text style="font-size: 7px; font-family: 'Arial', 'Helvetica', 'Microsoft YaHei', 'SimHei', 'Noto Sans CJK SC', 'DejaVu Sans', sans-serif; text-anchor: end; fill: #4d4d4d" x="26.67925" y="106.424273" transform="rotate(-0 26.67925 106.424273)">-1</text>
     </g>
    </g>
    <g id="ytick_2">
     <g id="line2d_12">
      <path d="M 33.17925 80.65074 
L 505.52925 80.65074 
" clip-path="url(#p9767d9b3af)" style="fill: none; stroke: #e6e8ec; stroke-opacity: 0.75; stroke-width: 0.55; stroke-linecap: square"/>
     </g>
     <g id="line2d_13">
      <g>
       <use xlink:href="#mb1766e2257" x="33.17925" y="80.65074" style="fill: #4d4d4d; stroke: #4d4d4d; stroke-width: 0.8"/>
      </g>
     </g>
     <g id="text_2">
      <text style="font-size: 7px; font-family: 'Arial', 'Helvetica', 'Microsoft YaHei', 'SimHei', 'Noto Sans CJK SC', 'DejaVu Sans', sans-serif; text-anchor: end; fill: #4d4d4d" x="26.67925" y="83.155975" transform="rotate(-0 26.67925 83.155975)">0</text>
     </g>
    </g>
    <g id="ytick_3">
     <g id="line2d_14">
      <path d="M 33.17925 57.382442 
L 505.52925 57.382442 
" clip-path="url(#p9767d9b3af)" style="fill: none; stroke: #e6e8ec; stroke-opacity: 0.75; stroke-width: 0.55; stroke-linecap: square"/>
     </g>
     <g id="line2d_15">
      <g>
       <use xlink:href="#mb1766e2257" x="33.17925" y="57.382442" style="fill: #4d4d4d; stroke: #4d4d4d; stroke-width: 0.8"/>
      </g>
     </g>
     <g id="text_3">
      <text style="font-size: 7px; font-family: 'Arial', 'Helvetica', 'Microsoft YaHei', 'SimHei', 'Noto Sans CJK SC', 'DejaVu Sans', sans-serif; text-anchor: end; fill: #4d4d4d" x="26.67925" y="59.887676" transform="rotate(-0 26.67925 59.887676)">1</text>
     </g>
    </g>
    <g id="text_4">
     <text style="font-size: 8px; font-family: 'Arial', 'Helvetica', 'Microsoft YaHei', 'SimHei', 'Noto Sans CJK SC', 'DejaVu Sans', sans-serif; text-anchor: middle; fill: #272727" x="14.865812" y="78.378446" transform="rotate(-90 14.865812 78.378446)">mV</text>
    </g>
   </g>
   <g id="line2d_16">
    <path d="M 32.851229 109.963343 
L 33.17925 108.599966 
L 33.835292 103.600918 
L 35.147375 90.535223 
L 35.475396 88.262928 
L 35.803417 86.785936 
L 36.131437 85.877018 
L 36.459458 85.422559 
L 37.1155 85.081715 
L 37.443521 85.081715 
L 38.099562 84.740871 
L 39.083625 83.945568 
L 39.739667 83.377494 
L 40.395708 83.263879 
L 41.05175 83.604724 
L 42.035812 84.172797 
L 42.691854 84.286412 
L 43.675917 84.286412 
L 44.331958 84.627256 
L 45.316021 85.19533 
L 45.972062 85.308945 
L 47.284146 84.854486 
L 47.940187 85.19533 
L 48.268208 85.649789 
L 49.580292 88.149313 
L 49.908312 88.490157 
L 50.236333 88.603772 
L 50.892375 88.262928 
L 51.548417 87.922084 
L 51.876437 87.922084 
L 52.204458 88.035698 
L 53.516542 89.399075 
L 54.172583 89.399075 
L 55.812687 88.376543 
L 56.79675 87.922084 
L 57.124771 87.694854 
L 58.108833 86.217863 
L 58.764875 85.19533 
L 59.748937 83.945568 
L 61.389042 82.127732 
L 62.045083 81.105199 
L 62.701125 80.082667 
L 63.029146 79.628208 
L 63.685187 79.287364 
L 64.997271 80.196281 
L 65.325292 79.969052 
L 65.981333 78.378446 
L 66.637375 76.787839 
L 66.965396 76.56061 
L 67.293417 76.901454 
L 67.949458 78.49206 
L 68.6055 80.082667 
L 68.933521 80.309896 
L 69.261542 80.309896 
L 70.573625 78.946519 
L 71.557687 78.946519 
L 71.885708 78.832905 
L 72.54175 78.264831 
L 72.869771 78.037601 
L 73.197792 78.037601 
L 73.525812 78.264831 
L 74.181854 79.287364 
L 74.509875 79.628208 
L 74.837896 79.741822 
L 75.165917 79.628208 
L 76.806021 77.923987 
L 77.462062 77.810372 
L 78.118104 78.151216 
L 79.430187 79.400978 
L 79.758208 79.514593 
L 80.41425 78.946519 
L 81.726333 76.219766 
L 82.054354 76.33338 
L 82.382375 77.015069 
L 83.694458 80.991585 
L 84.022479 81.218814 
L 84.3505 81.218814 
L 85.006542 81.105199 
L 85.334562 81.105199 
L 85.662583 81.218814 
L 85.990604 80.991585 
L 86.318625 80.537126 
L 87.302687 78.49206 
L 87.630708 78.264831 
L 87.958729 78.378446 
L 88.942792 79.628208 
L 89.270812 79.628208 
L 89.598833 79.400978 
L 90.254875 78.49206 
L 90.582896 78.264831 
L 90.910917 78.264831 
L 91.566958 79.287364 
L 91.894979 79.855437 
L 92.223 80.196281 
L 92.551021 80.196281 
L 92.879042 79.741822 
L 94.191125 76.787839 
L 94.519146 76.56061 
L 94.847167 76.674224 
L 95.175187 77.015069 
L 96.15925 78.832905 
L 96.487271 79.060134 
L 96.815292 79.060134 
L 97.143312 78.49206 
L 97.471333 77.583142 
L 98.783417 72.584094 
L 99.111437 72.24325 
L 99.439458 72.584094 
L 100.0955 74.629159 
L 100.423521 75.765307 
L 100.751542 76.446995 
L 101.079562 76.674224 
L 101.407583 76.219766 
L 102.063625 74.1747 
L 102.719667 72.470479 
L 103.047687 72.129635 
L 103.375708 72.356864 
L 103.703729 73.038553 
L 105.343833 78.037601 
L 105.671854 78.264831 
L 105.999875 78.264831 
L 107.311958 77.923987 
L 108.952062 78.946519 
L 109.280083 78.946519 
L 110.592167 78.151216 
L 110.920187 78.037601 
L 111.248208 78.151216 
L 112.232271 79.287364 
L 112.560292 79.741822 
L 113.216333 79.855437 
L 113.544354 79.741822 
L 114.856437 78.49206 
L 115.184458 78.49206 
L 115.8405 79.060134 
L 116.824562 80.309896 
L 117.152583 80.082667 
L 117.480604 79.060134 
L 117.808625 77.128683 
L 118.464667 70.879873 
L 119.120708 63.949374 
L 119.448729 61.563464 
L 119.77675 60.200087 
L 120.432792 58.83671 
L 120.760812 57.700563 
L 121.088833 55.428268 
L 122.072896 45.998245 
L 122.400917 45.202942 
L 122.728937 47.248007 
L 123.056958 52.5879 
L 123.713 70.539029 
L 124.369042 89.51269 
L 125.025083 100.646935 
L 125.353104 102.919229 
L 125.681125 103.600918 
L 126.665187 103.260074 
L 126.993208 103.600918 
L 128.305292 106.441286 
L 128.633312 106.554901 
L 128.961333 105.986827 
L 129.289354 104.737065 
L 129.617375 102.805615 
L 130.273417 97.011263 
L 131.257479 87.126781 
L 131.913521 82.923035 
L 132.241542 81.900503 
L 132.569562 81.332429 
L 133.225604 81.218814 
L 133.553625 81.218814 
L 134.209667 80.87797 
L 135.193729 80.309896 
L 135.52175 80.309896 
L 136.505812 80.87797 
L 137.161854 80.991585 
L 137.817896 80.87797 
L 138.145917 80.87797 
L 138.801958 81.105199 
L 140.442062 82.695806 
L 141.098104 83.03665 
L 142.410187 83.604724 
L 143.39425 84.400027 
L 144.378312 85.308945 
L 145.362375 85.877018 
L 146.018417 86.217863 
L 147.658521 87.240395 
L 148.314562 87.240395 
L 149.954667 86.785936 
L 150.282687 86.785936 
L 150.938729 86.899551 
L 151.594771 86.558707 
L 152.250812 85.763404 
L 152.906854 84.740871 
L 153.562896 83.718338 
L 154.218937 82.923035 
L 154.874979 82.354961 
L 155.859042 81.559658 
L 157.499146 79.287364 
L 158.155187 78.946519 
L 159.13925 78.946519 
L 159.795292 78.71929 
L 161.107375 77.355913 
L 161.763417 77.242298 
L 162.419458 77.583142 
L 163.0755 77.923987 
L 163.403521 78.037601 
L 164.387583 77.583142 
L 165.043625 77.242298 
L 165.699667 77.128683 
L 166.683729 77.583142 
L 167.667792 78.151216 
L 167.995812 78.264831 
L 169.963937 77.696757 
L 171.604042 78.71929 
L 171.932062 78.832905 
L 173.572167 78.264831 
L 175.540292 78.832905 
L 176.852375 78.378446 
L 177.836437 78.832905 
L 178.8205 79.514593 
L 179.476542 79.514593 
L 181.116646 78.378446 
L 181.772687 78.378446 
L 183.084771 78.71929 
L 185.052896 78.037601 
L 187.021021 78.605675 
L 187.677062 78.037601 
L 189.317167 76.446995 
L 190.957271 75.765307 
L 191.613312 74.970003 
L 192.269354 73.720241 
L 192.925396 72.924938 
L 193.253417 72.924938 
L 193.581437 73.265782 
L 194.237479 74.515544 
L 194.893521 75.651692 
L 195.221542 75.878921 
L 195.549562 75.651692 
L 195.877583 75.197233 
L 196.533625 73.947471 
L 196.861646 73.493012 
L 197.189667 73.379397 
L 197.517687 73.720241 
L 197.845708 74.288315 
L 199.157792 77.696757 
L 199.813833 78.49206 
L 201.453937 79.060134 
L 202.438 79.969052 
L 203.094042 80.423511 
L 203.422062 80.423511 
L 205.062167 79.855437 
L 205.718208 80.196281 
L 206.37425 80.764355 
L 207.030292 81.105199 
L 207.358312 81.105199 
L 209.326437 79.855437 
L 209.982479 80.196281 
L 210.3105 80.537126 
L 211.622583 82.695806 
L 211.950604 82.923035 
L 212.278625 82.695806 
L 212.606646 81.786888 
L 212.934667 80.082667 
L 213.590708 74.515544 
L 214.24675 68.380348 
L 214.574771 66.108054 
L 215.230812 63.835759 
L 215.558833 63.040456 
L 215.886854 61.677079 
L 216.214875 59.404784 
L 217.198937 49.633916 
L 217.526958 48.156925 
L 217.854979 49.179457 
L 218.183 53.155973 
L 218.839042 68.153119 
L 219.823104 91.444141 
L 220.151125 95.98873 
L 220.479146 98.829099 
L 220.807167 100.30609 
L 221.463208 101.669467 
L 222.11925 103.146459 
L 222.775292 104.85068 
L 223.103312 105.418754 
L 223.431333 105.759598 
L 223.759354 105.759598 
L 224.087375 105.305139 
L 224.415396 104.396221 
L 225.071437 100.760549 
L 226.0555 92.125829 
L 226.711542 86.672322 
L 227.367583 83.377494 
L 227.695604 82.695806 
L 228.351646 82.354961 
L 229.007687 82.468576 
L 229.663729 82.468576 
L 231.303833 81.786888 
L 231.959875 81.446044 
L 232.615917 81.446044 
L 233.599979 82.241347 
L 234.584042 83.150265 
L 234.912062 83.150265 
L 236.552167 82.695806 
L 236.880187 82.923035 
L 238.520292 85.19533 
L 239.176333 85.649789 
L 239.504354 85.649789 
L 241.472479 86.445092 
L 242.784562 87.240395 
L 243.112583 87.240395 
L 244.096646 87.013166 
L 244.752687 87.240395 
L 245.408729 87.808469 
L 246.064771 88.149313 
L 246.392792 88.149313 
L 247.048833 87.694854 
L 248.360917 85.990633 
L 250.329042 84.627256 
L 250.657062 84.172797 
L 251.969146 81.559658 
L 252.625187 80.65074 
L 253.60925 80.423511 
L 254.265292 80.423511 
L 254.921333 80.082667 
L 255.577375 79.514593 
L 256.233417 78.946519 
L 256.889458 78.832905 
L 257.5455 78.946519 
L 257.873521 78.946519 
L 258.857583 78.49206 
L 259.185604 78.151216 
L 259.841646 77.923987 
L 260.497687 78.264831 
L 261.48175 79.173749 
L 261.809771 79.400978 
L 262.465812 79.173749 
L 263.121854 78.605675 
L 263.777896 78.264831 
L 264.105917 78.264831 
L 265.418 79.287364 
L 265.746021 79.628208 
L 266.402062 79.741822 
L 266.730083 79.741822 
L 267.714146 79.514593 
L 268.042167 79.514593 
L 269.35425 80.082667 
L 270.010292 80.423511 
L 270.666333 80.423511 
L 271.650396 79.855437 
L 272.306437 79.741822 
L 273.946542 80.196281 
L 274.274562 80.196281 
L 275.586646 79.400978 
L 276.242687 79.287364 
L 277.22675 79.287364 
L 278.210812 78.832905 
L 278.866854 78.037601 
L 279.850917 76.787839 
L 280.178937 76.446995 
L 280.834979 76.219766 
L 281.491021 76.33338 
L 281.819042 76.33338 
L 282.147062 76.219766 
L 282.803104 75.310848 
L 283.459146 74.1747 
L 283.787167 73.833856 
L 284.115187 73.833856 
L 284.771229 74.629159 
L 285.427271 75.765307 
L 285.755292 76.106151 
L 286.083312 76.219766 
L 286.411333 75.992536 
L 287.395396 74.629159 
L 287.723417 74.40193 
L 288.051437 74.40193 
L 288.379458 74.970003 
L 289.0355 76.674224 
L 289.691542 78.378446 
L 290.019562 78.946519 
L 290.347583 79.173749 
L 291.331646 79.173749 
L 291.987687 79.514593 
L 293.299771 80.764355 
L 293.955812 80.764355 
L 295.267896 79.969052 
L 295.595917 79.969052 
L 296.251958 80.309896 
L 297.892062 81.332429 
L 298.548104 80.991585 
L 299.532167 79.969052 
L 299.860187 79.855437 
L 300.188208 79.969052 
L 300.516229 80.537126 
L 301.172271 82.354961 
L 301.500292 83.377494 
L 301.828312 83.831953 
L 302.156333 83.718338 
L 302.484354 82.582191 
L 303.140396 78.037601 
L 303.796437 72.924938 
L 304.452479 70.08457 
L 304.7805 68.948422 
L 305.108521 67.357816 
L 305.436542 64.631062 
L 306.092583 55.996342 
L 306.748625 47.929695 
L 307.076646 47.020777 
L 307.404667 49.065843 
L 307.732687 54.178506 
L 309.372792 91.103296 
L 309.700812 94.738968 
L 310.028833 97.124878 
L 310.684875 99.738017 
L 311.668937 102.351156 
L 312.653 104.168992 
L 312.981021 104.62345 
L 313.309042 104.737065 
L 313.637062 104.509836 
L 313.965083 103.828147 
L 314.293104 102.578385 
L 314.949146 98.14741 
L 316.261229 86.558707 
L 316.58925 84.627256 
L 316.917271 83.377494 
L 317.245292 82.695806 
L 317.573312 82.354961 
L 318.885396 81.786888 
L 319.541437 81.218814 
L 320.197479 81.105199 
L 321.181542 81.332429 
L 321.837583 81.332429 
L 322.821646 80.991585 
L 323.477688 81.332429 
L 323.805708 81.559658 
L 324.789771 82.80942 
L 325.445812 83.150265 
L 325.773833 83.150265 
L 326.757896 82.923035 
L 327.085917 83.03665 
L 327.741958 83.718338 
L 328.398 84.740871 
L 328.726021 85.19533 
L 329.382062 85.536174 
L 330.038104 85.536174 
L 330.694146 85.422559 
L 331.350187 85.763404 
L 333.318312 87.013166 
L 333.646333 87.013166 
L 334.958417 86.672322 
L 335.286437 86.672322 
L 336.2705 87.013166 
L 336.926542 86.785936 
L 337.582583 85.990633 
L 338.566646 84.400027 
L 339.222688 83.604724 
L 340.862792 82.354961 
L 341.846854 80.87797 
L 342.174875 80.309896 
L 343.158937 79.400978 
L 343.486958 79.400978 
L 348.07925 77.923987 
L 349.063312 78.151216 
L 349.391333 78.151216 
L 350.047375 78.037601 
L 350.703417 78.037601 
L 351.687479 78.49206 
L 352.343521 78.832905 
L 352.999562 78.946519 
L 353.327583 78.946519 
L 354.639667 78.605675 
L 354.967687 78.605675 
L 357.263833 79.287364 
L 358.247896 79.060134 
L 358.903937 79.060134 
L 360.216021 79.400978 
L 360.872062 79.400978 
L 361.856125 78.832905 
L 362.184146 78.71929 
L 363.496229 79.287364 
L 363.82425 79.514593 
L 364.480292 79.514593 
L 365.464354 78.71929 
L 366.120396 78.151216 
L 366.776437 78.151216 
L 367.7605 78.605675 
L 368.416542 78.946519 
L 368.744562 78.946519 
L 369.400604 78.71929 
L 370.056646 78.151216 
L 370.712687 77.696757 
L 371.040708 77.696757 
L 372.680812 77.015069 
L 373.992896 75.765307 
L 374.648937 75.424462 
L 374.976958 75.424462 
L 375.633 75.083618 
L 376.289042 74.288315 
L 377.273104 72.584094 
L 377.601125 72.24325 
L 377.929146 72.24325 
L 378.257167 72.584094 
L 378.585187 73.152168 
L 379.56925 75.538077 
L 379.897271 75.878921 
L 380.225292 75.878921 
L 380.553312 75.538077 
L 381.209354 73.947471 
L 381.537375 73.152168 
L 381.865396 72.697709 
L 382.193417 72.584094 
L 382.521437 72.924938 
L 383.177479 74.856389 
L 383.833521 77.015069 
L 384.161542 77.810372 
L 384.817583 78.605675 
L 388.425812 79.741822 
L 389.737896 79.287364 
L 390.393937 79.514593 
L 391.378 80.423511 
L 392.034042 80.537126 
L 392.362062 80.423511 
L 393.674146 79.060134 
L 394.002167 78.946519 
L 394.330187 79.287364 
L 394.658208 79.855437 
L 395.642271 82.468576 
L 395.970292 82.468576 
L 396.298312 81.673273 
L 396.626333 79.855437 
L 397.938417 68.834807 
L 398.266437 67.357816 
L 398.922479 65.767209 
L 399.2505 64.403833 
L 399.578521 61.790694 
L 400.890604 46.907163 
L 401.218625 47.361622 
L 401.546646 51.338138 
L 402.202687 67.585045 
L 402.858729 86.331477 
L 403.514771 98.601869 
L 403.842792 101.783082 
L 404.170812 103.487303 
L 404.498833 104.396221 
L 405.482896 105.986827 
L 406.794979 107.691048 
L 407.123 107.804663 
L 407.451021 107.691048 
L 407.779042 107.00936 
L 408.107062 105.645983 
L 408.763104 100.760549 
L 410.075187 87.694854 
L 410.731229 84.172797 
L 411.387271 83.03665 
L 412.043312 82.695806 
L 413.027375 81.559658 
L 413.683417 80.65074 
L 414.339458 80.309896 
L 416.963625 81.105199 
L 417.291646 81.105199 
L 417.947687 81.446044 
L 418.603729 82.014117 
L 419.259771 82.582191 
L 420.243833 83.150265 
L 421.227896 83.604724 
L 421.883937 84.172797 
L 423.852062 86.104248 
L 425.164146 86.104248 
L 425.820187 86.445092 
L 427.132271 87.240395 
L 427.460292 87.35401 
L 428.444354 86.899551 
L 429.428417 85.990633 
L 431.724562 84.286412 
L 432.708625 82.468576 
L 433.364667 81.218814 
L 434.67675 79.969052 
L 435.988833 78.946519 
L 436.972896 78.037601 
L 437.628937 77.923987 
L 437.956958 77.923987 
L 439.269042 78.264831 
L 439.925083 77.923987 
L 440.581125 77.355913 
L 441.565187 77.128683 
L 442.54925 77.583142 
L 443.205292 77.923987 
L 444.189354 78.151216 
L 444.517375 78.151216 
L 444.845396 78.037601 
L 447.469562 78.946519 
L 449.109667 78.49206 
L 449.765708 78.832905 
L 451.077792 79.628208 
L 451.733833 79.400978 
L 452.389875 78.832905 
L 453.045917 78.49206 
L 454.029979 78.946519 
L 454.686021 79.287364 
L 455.014042 79.400978 
L 455.998104 78.946519 
L 456.982167 78.378446 
L 457.310187 78.378446 
L 457.966229 78.71929 
L 458.622271 79.060134 
L 459.278312 79.173749 
L 459.934354 78.832905 
L 461.574458 77.810372 
L 462.886542 77.242298 
L 463.870604 76.33338 
L 465.510708 75.197233 
L 466.494771 73.720241 
L 466.822792 73.152168 
L 467.150812 72.811323 
L 467.478833 72.697709 
L 467.806854 72.811323 
L 468.462896 73.606627 
L 469.118937 74.742774 
L 469.774979 75.310848 
L 470.431021 74.970003 
L 471.087062 73.947471 
L 471.743104 73.152168 
L 472.071125 73.265782 
L 472.399146 73.606627 
L 473.055187 75.083618 
L 473.711229 76.901454 
L 474.367271 78.151216 
L 475.023312 78.71929 
L 477.9755 79.628208 
L 478.303521 79.628208 
L 479.943625 79.060134 
L 480.599667 79.400978 
L 481.255708 79.514593 
L 481.583729 79.514593 
L 482.567792 79.287364 
L 482.895812 79.287364 
L 484.207896 78.946519 
L 484.863937 79.173749 
L 485.191958 79.628208 
L 486.176021 81.446044 
L 486.504042 81.332429 
L 486.832062 80.309896 
L 487.160083 78.264831 
L 488.472167 66.448898 
L 488.800187 64.971906 
L 489.456229 63.722144 
L 489.78425 62.472382 
L 490.112271 59.972858 
L 491.424354 46.111859 
L 491.752375 47.361622 
L 492.080396 52.133441 
L 492.736437 69.743725 
L 493.392479 89.171846 
L 494.048521 101.442238 
L 494.376542 104.282606 
L 494.704562 105.645983 
L 495.032583 106.214057 
L 495.688625 106.782131 
L 496.344667 107.577434 
L 497.000708 108.372737 
L 497.328729 108.599966 
L 497.65675 108.599966 
L 497.984771 108.259122 
L 498.312792 107.577434 
L 498.968833 104.737065 
L 499.624875 99.738017 
L 501.593 81.673273 
L 501.921021 80.87797 
L 502.249042 80.87797 
L 502.577062 81.332429 
L 503.233104 82.468576 
L 503.561125 82.354961 
L 503.889146 81.673273 
L 504.545187 79.400978 
L 504.873208 78.71929 
L 505.201229 78.605675 
L 505.52925 79.060134 
L 505.857271 80.082667 
L 505.857271 80.082667 
" clip-path="url(#p9767d9b3af)" style="fill: none; stroke: #272727; stroke-width: 0.75; stroke-linecap: square"/>
   </g>
   <g id="patch_3">
    <path d="M 33.17925 114.8715 
L 33.17925 41.885391 
" style="fill: none; stroke: #4d4d4d; stroke-width: 0.8; stroke-linejoin: miter; stroke-linecap: square"/>
   </g>
   <g id="patch_4">
    <path d="M 33.17925 114.8715 
L 505.52925 114.8715 
" style="fill: none; stroke: #4d4d4d; stroke-width: 0.8; stroke-linejoin: miter; stroke-linecap: square"/>
   </g>
   <g id="text_5">
    <text style="font-weight: 700; font-size: 9px; font-family: 'Arial', 'Helvetica', 'Microsoft YaHei', 'SimHei', 'Noto Sans CJK SC', 'DejaVu Sans', sans-serif; text-anchor: start; fill: #272727" x="7.2" y="38.649575" transform="rotate(-0 7.2 38.649575)">a</text>
   </g>
   <g id="text_6">
    <text style="font-size: 9.6px; font-family: 'Arial', 'Helvetica', 'Microsoft YaHei', 'SimHei', 'Noto Sans CJK SC', 'DejaVu Sans', sans-serif; text-anchor: start; fill: #272727" x="33.17925" y="38.885391" transform="rotate(-0 33.17925 38.885391)">360 Hz / 11 bit  |  LSB 4.9 µV</text>
   </g>
  </g>
  <g id="axes_2">
   <g id="patch_5">
    <path d="M 33.17925 209.39775 
L 505.52925 209.39775 
L 505.52925 136.411641 
L 33.17925 136.411641 
z
" style="fill: #ffffff"/>
   </g>
   <g id="matplotlib.axis_3">
    <g id="xtick_10">
     <g id="line2d_17">
      <g>
       <use xlink:href="#m04ac6d70ff" x="33.17925" y="209.39775" style="fill: #4d4d4d; stroke: #4d4d4d; stroke-width: 0.8"/>
      </g>
     </g>
    </g>
    <g id="xtick_11">
     <g id="line2d_18">
      <g>
       <use xlink:href="#m04ac6d70ff" x="92.223" y="209.39775" style="fill: #4d4d4d; stroke: #4d4d4d; stroke-width: 0.8"/>
      </g>
     </g>
    </g>
    <g id="xtick_12">
     <g id="line2d_19">
      <g>
       <use xlink:href="#m04ac6d70ff" x="151.26675" y="209.39775" style="fill: #4d4d4d; stroke: #4d4d4d; stroke-width: 0.8"/>
      </g>
     </g>
    </g>
    <g id="xtick_13">
     <g id="line2d_20">
      <g>
       <use xlink:href="#m04ac6d70ff" x="210.3105" y="209.39775" style="fill: #4d4d4d; stroke: #4d4d4d; stroke-width: 0.8"/>
      </g>
     </g>
    </g>
    <g id="xtick_14">
     <g id="line2d_21">
      <g>
       <use xlink:href="#m04ac6d70ff" x="269.35425" y="209.39775" style="fill: #4d4d4d; stroke: #4d4d4d; stroke-width: 0.8"/>
      </g>
     </g>
    </g>
    <g id="xtick_15">
     <g id="line2d_22">
      <g>
       <use xlink:href="#m04ac6d70ff" x="328.398" y="209.39775" style="fill: #4d4d4d; stroke: #4d4d4d; stroke-width: 0.8"/>
      </g>
     </g>
    </g>
    <g id="xtick_16">
     <g id="line2d_23">
      <g>
       <use xlink:href="#m04ac6d70ff" x="387.44175" y="209.39775" style="fill: #4d4d4d; stroke: #4d4d4d; stroke-width: 0.8"/>
      </g>
     </g>
    </g>
    <g id="xtick_17">
     <g id="line2d_24">
      <g>
       <use xlink:href="#m04ac6d70ff" x="446.4855" y="209.39775" style="fill: #4d4d4d; stroke: #4d4d4d; stroke-width: 0.8"/>
      </g>
     </g>
    </g>
    <g id="xtick_18">
     <g id="line2d_25">
      <g>
       <use xlink:href="#m04ac6d70ff" x="505.52925" y="209.39775" style="fill: #4d4d4d; stroke: #4d4d4d; stroke-width: 0.8"/>
      </g>
     </g>
    </g>
   </g>
   <g id="matplotlib.axis_4">
    <g id="ytick_4">
     <g id="line2d_26">
      <path d="M 33.17925 198.445289 
L 505.52925 198.445289 
" clip-path="url(#p9fb868b82a)" style="fill: none; stroke: #e6e8ec; stroke-opacity: 0.75; stroke-width: 0.55; stroke-linecap: square"/>
     </g>
     <g id="line2d_27">
      <g>
       <use xlink:href="#mb1766e2257" x="33.17925" y="198.445289" style="fill: #4d4d4d; stroke: #4d4d4d; stroke-width: 0.8"/>
      </g>
     </g>
     <g id="text_7">
      <text style="font-size: 7px; font-family: 'Arial', 'Helvetica', 'Microsoft YaHei', 'SimHei', 'Noto Sans CJK SC', 'DejaVu Sans', sans-serif; text-anchor: end; fill: #4d4d4d" x="26.67925" y="200.950523" transform="rotate(-0 26.67925 200.950523)">-1</text>
     </g>
    </g>
    <g id="ytick_5">
     <g id="line2d_28">
      <path d="M 33.17925 175.17699 
L 505.52925 175.17699 
" clip-path="url(#p9fb868b82a)" style="fill: none; stroke: #e6e8ec; stroke-opacity: 0.75; stroke-width: 0.55; stroke-linecap: square"/>
     </g>
     <g id="line2d_29">
      <g>
       <use xlink:href="#mb1766e2257" x="33.17925" y="175.17699" style="fill: #4d4d4d; stroke: #4d4d4d; stroke-width: 0.8"/>
      </g>
     </g>
     <g id="text_8">
      <text style="font-size: 7px; font-family: 'Arial', 'Helvetica', 'Microsoft YaHei', 'SimHei', 'Noto Sans CJK SC', 'DejaVu Sans', sans-serif; text-anchor: end; fill: #4d4d4d" x="26.67925" y="177.682225" transform="rotate(-0 26.67925 177.682225)">0</text>
     </g>
    </g>
    <g id="ytick_6">
     <g id="line2d_30">
      <path d="M 33.17925 151.908692 
L 505.52925 151.908692 
" clip-path="url(#p9fb868b82a)" style="fill: none; stroke: #e6e8ec; stroke-opacity: 0.75; stroke-width: 0.55; stroke-linecap: square"/>
     </g>
     <g id="line2d_31">
      <g>
       <use xlink:href="#mb1766e2257" x="33.17925" y="151.908692" style="fill: #4d4d4d; stroke: #4d4d4d; stroke-width: 0.8"/>
      </g>
     </g>
     <g id="text_9">
      <text style="font-size: 7px; font-family: 'Arial', 'Helvetica', 'Microsoft YaHei', 'SimHei', 'Noto Sans CJK SC', 'DejaVu Sans', sans-serif; text-anchor: end; fill: #4d4d4d" x="26.67925" y="154.413926" transform="rotate(-0 26.67925 154.413926)">1</text>
     </g>
    </g>
    <g id="text_10">
     <text style="font-size: 8px; font-family: 'Arial', 'Helvetica', 'Microsoft YaHei', 'SimHei', 'Noto Sans CJK SC', 'DejaVu Sans', sans-serif; text-anchor: middle; fill: #272727" x="14.865812" y="172.904696" transform="rotate(-90 14.865812 172.904696)">mV</text>
    </g>
   </g>
   <g id="line2d_32">
    <path d="M -1 171.541319 
L -0.934917 171.541319 
L 0.377167 167.905647 
L 1.033208 167.905647 
L 3.001333 170.632401 
L 3.657375 170.632401 
L 4.313417 168.814565 
L 4.969458 167.905647 
L 5.6255 168.814565 
L 6.281542 170.632401 
L 6.937583 173.359155 
L 7.593625 174.268072 
L 8.905708 172.450237 
L 10.873833 175.17699 
L 11.529875 174.268072 
L 12.841958 174.268072 
L 14.154042 176.085908 
L 15.466125 174.268072 
L 16.122167 174.268072 
L 18.090292 176.994826 
L 18.746333 176.994826 
L 19.402375 177.903744 
L 20.058417 177.903744 
L 20.714458 176.085908 
L 22.026542 163.361057 
L 22.682583 158.816468 
L 23.338625 156.998632 
L 23.994667 154.271878 
L 25.30675 140.638109 
L 25.962792 144.273781 
L 26.618833 159.725386 
L 27.274875 180.630498 
L 27.930917 195.173185 
L 28.586958 201.53561 
L 29.243 203.353446 
L 31.211125 206.0802 
L 31.867167 206.0802 
L 32.523208 205.171282 
L 33.17925 203.353446 
L 34.491333 191.537513 
L 35.147375 185.175087 
L 35.803417 181.539416 
L 36.459458 179.72158 
L 37.771542 179.72158 
L 38.427583 178.812662 
L 39.083625 178.812662 
L 39.739667 177.903744 
L 41.05175 177.903744 
L 41.707792 178.812662 
L 44.331958 178.812662 
L 44.988 179.72158 
L 47.612167 179.72158 
L 50.236333 183.357252 
L 50.892375 182.448334 
L 52.204458 182.448334 
L 53.516542 184.26617 
L 54.172583 184.26617 
L 54.828625 183.357252 
L 55.484667 183.357252 
L 56.140708 182.448334 
L 56.79675 182.448334 
L 60.733 176.994826 
L 61.389042 176.994826 
L 62.045083 176.085908 
L 62.701125 174.268072 
L 65.325292 174.268072 
L 65.981333 173.359155 
L 66.637375 171.541319 
L 67.293417 171.541319 
L 67.949458 173.359155 
L 69.261542 175.17699 
L 70.573625 173.359155 
L 71.885708 173.359155 
L 72.54175 172.450237 
L 73.197792 172.450237 
L 74.509875 174.268072 
L 75.165917 174.268072 
L 76.478 172.450237 
L 77.790083 172.450237 
L 78.446125 173.359155 
L 79.102167 173.359155 
L 79.758208 174.268072 
L 80.41425 173.359155 
L 81.070292 171.541319 
L 81.726333 170.632401 
L 82.382375 171.541319 
L 83.694458 175.17699 
L 84.3505 176.085908 
L 85.006542 175.17699 
L 85.662583 176.085908 
L 86.318625 175.17699 
L 86.974667 173.359155 
L 87.630708 172.450237 
L 88.942792 174.268072 
L 89.598833 174.268072 
L 90.910917 172.450237 
L 91.566958 174.268072 
L 92.223 175.17699 
L 92.879042 174.268072 
L 93.535083 172.450237 
L 94.191125 171.541319 
L 94.847167 171.541319 
L 96.15925 173.359155 
L 96.815292 173.359155 
L 97.471333 172.450237 
L 98.783417 166.996729 
L 99.439458 166.996729 
L 100.751542 170.632401 
L 101.407583 170.632401 
L 102.719667 166.996729 
L 103.375708 166.996729 
L 105.343833 172.450237 
L 107.311958 172.450237 
L 107.968 173.359155 
L 109.936125 173.359155 
L 110.592167 172.450237 
L 111.248208 172.450237 
L 112.560292 174.268072 
L 113.872375 174.268072 
L 114.528417 173.359155 
L 115.8405 173.359155 
L 116.496542 174.268072 
L 117.152583 174.268072 
L 117.808625 171.541319 
L 119.120708 158.816468 
L 119.77675 154.271878 
L 120.432792 153.36296 
L 121.088833 149.727289 
L 121.744875 143.364863 
L 122.400917 139.729192 
L 123.056958 147.000535 
L 124.369042 184.26617 
L 125.025083 195.173185 
L 125.681125 197.899938 
L 126.993208 197.899938 
L 127.64925 199.717774 
L 128.305292 200.626692 
L 128.961333 200.626692 
L 129.617375 196.99102 
L 130.273417 191.537513 
L 130.929458 184.26617 
L 131.5855 178.812662 
L 132.241542 176.085908 
L 133.553625 176.085908 
L 134.209667 175.17699 
L 138.145917 175.17699 
L 138.801958 176.085908 
L 139.458 176.085908 
L 140.770083 177.903744 
L 142.738208 177.903744 
L 144.050292 179.72158 
L 144.706333 179.72158 
L 145.362375 180.630498 
L 146.018417 180.630498 
L 146.674458 181.539416 
L 151.26675 181.539416 
L 154.546958 176.994826 
L 155.203 176.994826 
L 157.827167 173.359155 
L 159.795292 173.359155 
L 161.107375 171.541319 
L 161.763417 171.541319 
L 162.419458 172.450237 
L 164.387583 172.450237 
L 165.043625 171.541319 
L 166.355708 171.541319 
L 167.01175 172.450237 
L 170.948 172.450237 
L 171.604042 173.359155 
L 172.916125 173.359155 
L 173.572167 172.450237 
L 174.228208 173.359155 
L 178.164458 173.359155 
L 178.8205 174.268072 
L 179.476542 174.268072 
L 180.132583 173.359155 
L 180.788625 173.359155 
L 181.444667 172.450237 
L 182.100708 173.359155 
L 183.412792 173.359155 
L 184.068833 172.450237 
L 185.380917 172.450237 
L 186.036958 173.359155 
L 187.349042 173.359155 
L 189.317167 170.632401 
L 190.62925 170.632401 
L 192.597375 167.905647 
L 193.909458 167.905647 
L 194.5655 169.723483 
L 195.221542 170.632401 
L 197.189667 167.905647 
L 197.845708 168.814565 
L 199.157792 172.450237 
L 199.813833 173.359155 
L 201.125917 173.359155 
L 201.781958 174.268072 
L 202.438 174.268072 
L 203.094042 175.17699 
L 203.750083 175.17699 
L 204.406125 174.268072 
L 205.062167 174.268072 
L 205.718208 175.17699 
L 206.37425 175.17699 
L 207.030292 176.085908 
L 207.686333 175.17699 
L 208.342375 175.17699 
L 208.998417 174.268072 
L 209.654458 174.268072 
L 211.622583 176.994826 
L 212.278625 176.994826 
L 212.934667 174.268072 
L 214.902792 158.816468 
L 215.558833 157.90755 
L 216.214875 154.271878 
L 216.870917 147.000535 
L 217.526958 142.455945 
L 218.183 147.909453 
L 218.839042 162.45214 
L 219.495083 179.72158 
L 220.151125 190.628595 
L 220.807167 195.173185 
L 221.463208 196.082102 
L 222.775292 199.717774 
L 223.431333 200.626692 
L 224.087375 199.717774 
L 224.743417 196.99102 
L 225.399458 192.446431 
L 226.711542 181.539416 
L 227.367583 177.903744 
L 228.023625 176.994826 
L 230.647792 176.994826 
L 231.303833 176.085908 
L 233.271958 176.085908 
L 234.584042 177.903744 
L 235.240083 177.903744 
L 235.896125 176.994826 
L 236.552167 176.994826 
L 238.520292 179.72158 
L 239.176333 179.72158 
L 239.832375 180.630498 
L 241.144458 180.630498 
L 241.8005 181.539416 
L 244.424667 181.539416 
L 245.080708 182.448334 
L 247.048833 182.448334 
L 249.016958 179.72158 
L 249.673 179.72158 
L 251.641125 176.994826 
L 252.297167 175.17699 
L 254.265292 175.17699 
L 254.921333 174.268072 
L 255.577375 174.268072 
L 256.233417 173.359155 
L 258.857583 173.359155 
L 259.513625 172.450237 
L 260.169667 172.450237 
L 260.825708 173.359155 
L 261.48175 173.359155 
L 262.137792 174.268072 
L 263.449875 172.450237 
L 264.105917 172.450237 
L 265.418 174.268072 
L 269.35425 174.268072 
L 270.010292 175.17699 
L 270.666333 175.17699 
L 271.322375 174.268072 
L 273.2905 174.268072 
L 273.946542 175.17699 
L 274.602583 174.268072 
L 275.914667 174.268072 
L 276.570708 173.359155 
L 278.538833 173.359155 
L 280.506958 170.632401 
L 282.475083 170.632401 
L 283.131125 168.814565 
L 284.443208 168.814565 
L 285.755292 170.632401 
L 286.411333 170.632401 
L 287.723417 168.814565 
L 288.379458 169.723483 
L 289.691542 173.359155 
L 291.659667 173.359155 
L 292.97175 175.17699 
L 294.283833 175.17699 
L 294.939875 174.268072 
L 295.595917 174.268072 
L 296.251958 175.17699 
L 296.908 175.17699 
L 297.564042 176.085908 
L 298.220083 176.085908 
L 299.532167 174.268072 
L 300.188208 174.268072 
L 301.500292 177.903744 
L 302.156333 177.903744 
L 302.812375 175.17699 
L 303.468417 169.723483 
L 304.124458 166.087811 
L 304.7805 163.361057 
L 305.436542 158.816468 
L 306.748625 142.455945 
L 307.404667 143.364863 
L 308.060708 156.089714 
L 308.71675 173.359155 
L 309.372792 185.175087 
L 310.028833 191.537513 
L 310.684875 194.264267 
L 311.996958 197.899938 
L 312.653 198.808856 
L 313.965083 198.808856 
L 314.621125 195.173185 
L 316.58925 178.812662 
L 317.245292 176.994826 
L 317.901333 176.994826 
L 318.557375 176.085908 
L 321.837583 176.085908 
L 322.493625 175.17699 
L 323.149667 175.17699 
L 325.117792 177.903744 
L 327.741958 177.903744 
L 328.398 179.72158 
L 331.022167 179.72158 
L 332.33425 181.539416 
L 336.926542 181.539416 
L 339.550708 177.903744 
L 340.20675 177.903744 
L 342.830917 174.268072 
L 343.486958 174.268072 
L 344.143 173.359155 
L 346.111125 173.359155 
L 346.767167 172.450237 
L 351.359458 172.450237 
L 352.0155 173.359155 
L 359.231958 173.359155 
L 359.888 174.268072 
L 360.544042 174.268072 
L 361.200083 173.359155 
L 363.168208 173.359155 
L 363.82425 174.268072 
L 364.480292 174.268072 
L 365.136333 173.359155 
L 365.792375 173.359155 
L 366.448417 172.450237 
L 367.104458 172.450237 
L 367.7605 173.359155 
L 369.728625 173.359155 
L 370.384667 172.450237 
L 371.69675 172.450237 
L 372.352792 171.541319 
L 373.008833 171.541319 
L 374.320917 169.723483 
L 375.633 169.723483 
L 377.601125 166.996729 
L 378.257167 166.996729 
L 378.913208 168.814565 
L 380.225292 170.632401 
L 380.881333 169.723483 
L 381.537375 167.905647 
L 382.193417 166.996729 
L 382.849458 167.905647 
L 383.5055 170.632401 
L 384.161542 172.450237 
L 384.817583 173.359155 
L 386.785708 173.359155 
L 387.44175 174.268072 
L 390.721958 174.268072 
L 391.378 175.17699 
L 392.034042 175.17699 
L 392.690083 174.268072 
L 393.346125 174.268072 
L 394.002167 173.359155 
L 394.658208 174.268072 
L 395.31425 176.085908 
L 395.970292 176.994826 
L 396.626333 174.268072 
L 397.938417 163.361057 
L 398.594458 160.634304 
L 399.2505 158.816468 
L 399.906542 152.454042 
L 400.562583 143.364863 
L 401.218625 141.547027 
L 401.874667 153.36296 
L 403.18675 187.901841 
L 403.842792 196.082102 
L 404.498833 198.808856 
L 407.123 202.444528 
L 407.779042 201.53561 
L 408.435083 197.899938 
L 410.403208 179.72158 
L 411.05925 177.903744 
L 411.715292 176.994826 
L 412.371333 176.994826 
L 413.683417 175.17699 
L 416.963625 175.17699 
L 417.619667 176.085908 
L 418.275708 176.085908 
L 418.93175 176.994826 
L 419.587792 176.994826 
L 420.243833 177.903744 
L 421.555917 177.903744 
L 423.524042 180.630498 
L 425.492167 180.630498 
L 426.148208 181.539416 
L 428.772375 181.539416 
L 430.084458 179.72158 
L 430.7405 179.72158 
L 434.67675 174.268072 
L 435.332792 174.268072 
L 436.644875 172.450237 
L 439.925083 172.450237 
L 440.581125 171.541319 
L 441.893208 171.541319 
L 442.54925 172.450237 
L 445.829458 172.450237 
L 446.4855 173.359155 
L 449.765708 173.359155 
L 450.42175 174.268072 
L 451.733833 174.268072 
L 452.389875 173.359155 
L 454.358 173.359155 
L 455.014042 174.268072 
L 455.670083 173.359155 
L 460.262375 173.359155 
L 460.918417 172.450237 
L 462.2305 172.450237 
L 462.886542 171.541319 
L 463.542583 171.541319 
L 464.198625 170.632401 
L 464.854667 170.632401 
L 467.478833 166.996729 
L 469.446958 169.723483 
L 470.103 169.723483 
L 471.415083 167.905647 
L 472.071125 167.905647 
L 472.727167 168.814565 
L 474.03925 172.450237 
L 474.695292 173.359155 
L 476.663417 173.359155 
L 477.319458 174.268072 
L 478.631542 174.268072 
L 479.287583 173.359155 
L 479.943625 173.359155 
L 480.599667 174.268072 
L 482.567792 174.268072 
L 483.223833 173.359155 
L 484.535917 173.359155 
L 486.504042 176.085908 
L 487.160083 172.450237 
L 488.472167 160.634304 
L 489.78425 156.998632 
L 490.440292 150.636207 
L 491.096333 142.455945 
L 491.752375 141.547027 
L 492.408417 154.271878 
L 493.064458 174.268072 
L 493.7205 190.628595 
L 494.376542 198.808856 
L 495.032583 200.626692 
L 497.000708 203.353446 
L 497.65675 203.353446 
L 498.312792 202.444528 
L 498.968833 198.808856 
L 499.624875 194.264267 
L 501.593 176.085908 
L 502.249042 175.17699 
L 502.905083 176.994826 
L 503.561125 176.994826 
L 504.873208 173.359155 
L 505.52925 173.359155 
L 506.185292 176.085908 
L 506.841333 176.994826 
L 507.497375 176.085908 
L 508.153417 174.268072 
L 508.809458 175.17699 
L 509.4655 176.994826 
L 510.121542 176.994826 
L 511.433625 175.17699 
L 512.089667 176.994826 
L 512.745708 179.72158 
L 513.40175 181.539416 
L 514.057792 180.630498 
L 514.713833 178.812662 
L 515.369875 178.812662 
L 516.681958 182.448334 
L 517.338 182.448334 
L 517.994042 181.539416 
L 518.59425 182.370979 
L 518.59425 182.370979 
" clip-path="url(#p9fb868b82a)" style="fill: none; stroke: #3775ba; stroke-width: 0.75; stroke-linecap: square"/>
   </g>
   <g id="patch_6">
    <path d="M 33.17925 209.39775 
L 33.17925 136.411641 
" style="fill: none; stroke: #4d4d4d; stroke-width: 0.8; stroke-linejoin: miter; stroke-linecap: square"/>
   </g>
   <g id="patch_7">
    <path d="M 33.17925 209.39775 
L 505.52925 209.39775 
" style="fill: none; stroke: #4d4d4d; stroke-width: 0.8; stroke-linejoin: miter; stroke-linecap: square"/>
   </g>
   <g id="text_11">
    <text style="font-weight: 700; font-size: 9px; font-family: 'Arial', 'Helvetica', 'Microsoft YaHei', 'SimHei', 'Noto Sans CJK SC', 'DejaVu Sans', sans-serif; text-anchor: start; fill: #272727" x="7.2" y="133.175825" transform="rotate(-0 7.2 133.175825)">b</text>
   </g>
   <g id="text_12">
    <text style="font-size: 9.6px; font-family: 'Arial', 'Helvetica', 'Microsoft YaHei', 'SimHei', 'Noto Sans CJK SC', 'DejaVu Sans', sans-serif; text-anchor: start; fill: #272727" x="33.17925" y="133.411641" transform="rotate(-0 33.17925 133.411641)">180 Hz / 8 bit  |  LSB 39.1 µV</text>
   </g>
  </g>
  <g id="axes_3">
   <g id="patch_8">
    <path d="M 33.17925 303.924 
L 505.52925 303.924 
L 505.52925 230.937891 
L 33.17925 230.937891 
z
" style="fill: #ffffff"/>
   </g>
   <g id="matplotlib.axis_5">
    <g id="xtick_19">
     <g id="line2d_33">
      <g>
       <use xlink:href="#m04ac6d70ff" x="33.17925" y="303.924" style="fill: #4d4d4d; stroke: #4d4d4d; stroke-width: 0.8"/>
      </g>
     </g>
     <g id="text_13">
      <text style="font-size: 7px; font-family: 'Arial', 'Helvetica', 'Microsoft YaHei', 'SimHei', 'Noto Sans CJK SC', 'DejaVu Sans', sans-serif; text-anchor: middle; fill: #4d4d4d" x="33.17925" y="315.434469" transform="rotate(-0 33.17925 315.434469)">0.5</text>
     </g>
    </g>
    <g id="xtick_20">
     <g id="line2d_34">
      <g>
       <use xlink:href="#m04ac6d70ff" x="92.223" y="303.924" style="fill: #4d4d4d; stroke: #4d4d4d; stroke-width: 0.8"/>
      </g>
     </g>
     <g id="text_14">
      <text style="font-size: 7px; font-family: 'Arial', 'Helvetica', 'Microsoft YaHei', 'SimHei', 'Noto Sans CJK SC', 'DejaVu Sans', sans-serif; text-anchor: middle; fill: #4d4d4d" x="92.223" y="315.434469" transform="rotate(-0 92.223 315.434469)">1.0</text>
     </g>
    </g>
    <g id="xtick_21">
     <g id="line2d_35">
      <g>
       <use xlink:href="#m04ac6d70ff" x="151.26675" y="303.924" style="fill: #4d4d4d; stroke: #4d4d4d; stroke-width: 0.8"/>
      </g>
     </g>
     <g id="text_15">
      <text style="font-size: 7px; font-family: 'Arial', 'Helvetica', 'Microsoft YaHei', 'SimHei', 'Noto Sans CJK SC', 'DejaVu Sans', sans-serif; text-anchor: middle; fill: #4d4d4d" x="151.26675" y="315.434469" transform="rotate(-0 151.26675 315.434469)">1.5</text>
     </g>
    </g>
    <g id="xtick_22">
     <g id="line2d_36">
      <g>
       <use xlink:href="#m04ac6d70ff" x="210.3105" y="303.924" style="fill: #4d4d4d; stroke: #4d4d4d; stroke-width: 0.8"/>
      </g>
     </g>
     <g id="text_16">
      <text style="font-size: 7px; font-family: 'Arial', 'Helvetica', 'Microsoft YaHei', 'SimHei', 'Noto Sans CJK SC', 'DejaVu Sans', sans-serif; text-anchor: middle; fill: #4d4d4d" x="210.3105" y="315.434469" transform="rotate(-0 210.3105 315.434469)">2.0</text>
     </g>
    </g>
    <g id="xtick_23">
     <g id="line2d_37">
      <g>
       <use xlink:href="#m04ac6d70ff" x="269.35425" y="303.924" style="fill: #4d4d4d; stroke: #4d4d4d; stroke-width: 0.8"/>
      </g>
     </g>
     <g id="text_17">
      <text style="font-size: 7px; font-family: 'Arial', 'Helvetica', 'Microsoft YaHei', 'SimHei', 'Noto Sans CJK SC', 'DejaVu Sans', sans-serif; text-anchor: middle; fill: #4d4d4d" x="269.35425" y="315.434469" transform="rotate(-0 269.35425 315.434469)">2.5</text>
     </g>
    </g>
    <g id="xtick_24">
     <g id="line2d_38">
      <g>
       <use xlink:href="#m04ac6d70ff" x="328.398" y="303.924" style="fill: #4d4d4d; stroke: #4d4d4d; stroke-width: 0.8"/>
      </g>
     </g>
     <g id="text_18">
      <text style="font-size: 7px; font-family: 'Arial', 'Helvetica', 'Microsoft YaHei', 'SimHei', 'Noto Sans CJK SC', 'DejaVu Sans', sans-serif; text-anchor: middle; fill: #4d4d4d" x="328.398" y="315.434469" transform="rotate(-0 328.398 315.434469)">3.0</text>
     </g>
    </g>
    <g id="xtick_25">
     <g id="line2d_39">
      <g>
       <use xlink:href="#m04ac6d70ff" x="387.44175" y="303.924" style="fill: #4d4d4d; stroke: #4d4d4d; stroke-width: 0.8"/>
      </g>
     </g>
     <g id="text_19">
      <text style="font-size: 7px; font-family: 'Arial', 'Helvetica', 'Microsoft YaHei', 'SimHei', 'Noto Sans CJK SC', 'DejaVu Sans', sans-serif; text-anchor: middle; fill: #4d4d4d" x="387.44175" y="315.434469" transform="rotate(-0 387.44175 315.434469)">3.5</text>
     </g>
    </g>
    <g id="xtick_26">
     <g id="line2d_40">
      <g>
       <use xlink:href="#m04ac6d70ff" x="446.4855" y="303.924" style="fill: #4d4d4d; stroke: #4d4d4d; stroke-width: 0.8"/>
      </g>
     </g>
     <g id="text_20">
      <text style="font-size: 7px; font-family: 'Arial', 'Helvetica', 'Microsoft YaHei', 'SimHei', 'Noto Sans CJK SC', 'DejaVu Sans', sans-serif; text-anchor: middle; fill: #4d4d4d" x="446.4855" y="315.434469" transform="rotate(-0 446.4855 315.434469)">4.0</text>
     </g>
    </g>
    <g id="xtick_27">
     <g id="line2d_41">
      <g>
       <use xlink:href="#m04ac6d70ff" x="505.52925" y="303.924" style="fill: #4d4d4d; stroke: #4d4d4d; stroke-width: 0.8"/>
      </g>
     </g>
     <g id="text_21">
      <text style="font-size: 7px; font-family: 'Arial', 'Helvetica', 'Microsoft YaHei', 'SimHei', 'Noto Sans CJK SC', 'DejaVu Sans', sans-serif; text-anchor: middle; fill: #4d4d4d" x="505.52925" y="315.434469" transform="rotate(-0 505.52925 315.434469)">4.5</text>
     </g>
    </g>
    <g id="text_22">
     <text style="font-size: 8px; font-family: 'Arial', 'Helvetica', 'Microsoft YaHei', 'SimHei', 'Noto Sans CJK SC', 'DejaVu Sans', sans-serif; text-anchor: middle; fill: #272727" x="269.35425" y="326.649469" transform="rotate(-0 269.35425 326.649469)">Time (s)</text>
    </g>
   </g>
   <g id="matplotlib.axis_6">
    <g id="ytick_7">
     <g id="line2d_42">
      <path d="M 33.17925 294.361649 
L 505.52925 294.361649 
" clip-path="url(#p4e262f8b98)" style="fill: none; stroke: #e6e8ec; stroke-opacity: 0.75; stroke-width: 0.55; stroke-linecap: square"/>
     </g>
     <g id="line2d_43">
      <g>
       <use xlink:href="#mb1766e2257" x="33.17925" y="294.361649" style="fill: #4d4d4d; stroke: #4d4d4d; stroke-width: 0.8"/>
      </g>
     </g>
     <g id="text_23">
      <text style="font-size: 7px; font-family: 'Arial', 'Helvetica', 'Microsoft YaHei', 'SimHei', 'Noto Sans CJK SC', 'DejaVu Sans', sans-serif; text-anchor: end; fill: #4d4d4d" x="26.67925" y="296.866883" transform="rotate(-0 26.67925 296.866883)">-1</text>
     </g>
    </g>
    <g id="ytick_8">
     <g id="line2d_44">
      <path d="M 33.17925 269.382446 
L 505.52925 269.382446 
" clip-path="url(#p4e262f8b98)" style="fill: none; stroke: #e6e8ec; stroke-opacity: 0.75; stroke-width: 0.55; stroke-linecap: square"/>
     </g>
     <g id="line2d_45">
      <g>
       <use xlink:href="#mb1766e2257" x="33.17925" y="269.382446" style="fill: #4d4d4d; stroke: #4d4d4d; stroke-width: 0.8"/>
      </g>
     </g>
     <g id="text_24">
      <text style="font-size: 7px; font-family: 'Arial', 'Helvetica', 'Microsoft YaHei', 'SimHei', 'Noto Sans CJK SC', 'DejaVu Sans', sans-serif; text-anchor: end; fill: #4d4d4d" x="26.67925" y="271.88768" transform="rotate(-0 26.67925 271.88768)">0</text>
     </g>
    </g>
    <g id="ytick_9">
     <g id="line2d_46">
      <path d="M 33.17925 244.403243 
L 505.52925 244.403243 
" clip-path="url(#p4e262f8b98)" style="fill: none; stroke: #e6e8ec; stroke-opacity: 0.75; stroke-width: 0.55; stroke-linecap: square"/>
     </g>
     <g id="line2d_47">
      <g>
       <use xlink:href="#mb1766e2257" x="33.17925" y="244.403243" style="fill: #4d4d4d; stroke: #4d4d4d; stroke-width: 0.8"/>
      </g>
     </g>
     <g id="text_25">
      <text style="font-size: 7px; font-family: 'Arial', 'Helvetica', 'Microsoft YaHei', 'SimHei', 'Noto Sans CJK SC', 'DejaVu Sans', sans-serif; text-anchor: end; fill: #4d4d4d" x="26.67925" y="246.908477" transform="rotate(-0 26.67925 246.908477)">1</text>
     </g>
    </g>
    <g id="text_26">
     <text style="font-size: 8px; font-family: 'Arial', 'Helvetica', 'Microsoft YaHei', 'SimHei', 'Noto Sans CJK SC', 'DejaVu Sans', sans-serif; text-anchor: middle; fill: #272727" x="14.865812" y="267.430946" transform="rotate(-90 14.865812 267.430946)">mV</text>
    </g>
   </g>
   <g id="line2d_48">
    <path d="M -1 265.260891 
L 0.11475 261.576445 
L 1.295625 261.576445 
L 2.4765 265.479445 
L 3.657375 265.479445 
L 4.83825 261.576445 
L 7.2 269.382446 
L 8.380875 265.479445 
L 9.56175 265.479445 
L 10.742625 269.382446 
L 17.827875 269.382446 
L 19.00875 273.285446 
L 20.189625 273.285446 
L 21.3705 265.479445 
L 22.551375 253.770444 
L 23.73225 249.867443 
L 24.913125 234.255442 
L 26.094 238.158442 
L 27.274875 273.285446 
L 28.45575 296.703449 
L 29.636625 300.60645 
L 33.17925 300.60645 
L 35.541 277.188447 
L 36.721875 273.285446 
L 47.34975 273.285446 
L 48.530625 277.188447 
L 57.977625 277.188447 
L 59.1585 273.285446 
L 60.339375 273.285446 
L 61.52025 269.382446 
L 65.062875 269.382446 
L 66.24375 265.479445 
L 67.424625 265.479445 
L 68.6055 269.382446 
L 70.96725 269.382446 
L 72.148125 265.479445 
L 73.329 265.479445 
L 74.509875 269.382446 
L 75.69075 269.382446 
L 76.871625 265.479445 
L 78.0525 265.479445 
L 79.233375 269.382446 
L 80.41425 269.382446 
L 81.595125 265.479445 
L 82.776 265.479445 
L 83.956875 269.382446 
L 86.318625 269.382446 
L 87.4995 265.479445 
L 88.680375 269.382446 
L 89.86125 269.382446 
L 91.042125 265.479445 
L 92.223 269.382446 
L 93.403875 265.479445 
L 95.765625 265.479445 
L 96.9465 269.382446 
L 98.127375 261.576445 
L 99.30825 261.576445 
L 100.489125 265.479445 
L 101.67 265.479445 
L 102.850875 261.576445 
L 104.03175 261.576445 
L 105.212625 265.479445 
L 107.574375 265.479445 
L 108.75525 269.382446 
L 109.936125 265.479445 
L 111.117 265.479445 
L 112.297875 269.382446 
L 113.47875 269.382446 
L 114.659625 265.479445 
L 115.8405 269.382446 
L 117.021375 269.382446 
L 118.20225 261.576445 
L 119.383125 249.867443 
L 120.564 245.964443 
L 121.744875 234.255442 
L 122.92575 238.158442 
L 124.106625 273.285446 
L 125.2875 292.800449 
L 126.468375 292.800449 
L 127.64925 296.703449 
L 128.830125 296.703449 
L 130.011 288.897448 
L 131.191875 277.188447 
L 132.37275 269.382446 
L 139.458 269.382446 
L 140.638875 273.285446 
L 145.362375 273.285446 
L 146.54325 277.188447 
L 151.26675 277.188447 
L 152.447625 273.285446 
L 153.6285 273.285446 
L 154.809375 269.382446 
L 159.532875 269.382446 
L 160.71375 265.479445 
L 177.246 265.479445 
L 178.426875 269.382446 
L 179.60775 269.382446 
L 180.788625 265.479445 
L 191.4165 265.479445 
L 192.597375 261.576445 
L 193.77825 261.576445 
L 194.959125 265.479445 
L 196.14 261.576445 
L 197.320875 261.576445 
L 198.50175 265.479445 
L 200.8635 265.479445 
L 202.044375 269.382446 
L 210.3105 269.382446 
L 211.491375 273.285446 
L 212.67225 269.382446 
L 216.214875 245.964443 
L 217.39575 234.255442 
L 218.576625 249.867443 
L 219.7575 281.091447 
L 220.938375 292.800449 
L 222.11925 292.800449 
L 223.300125 296.703449 
L 224.481 292.800449 
L 225.661875 284.994448 
L 226.84275 273.285446 
L 228.023625 269.382446 
L 229.2045 273.285446 
L 230.385375 269.382446 
L 232.747125 269.382446 
L 233.928 273.285446 
L 239.832375 273.285446 
L 241.01325 277.188447 
L 248.0985 277.188447 
L 249.279375 273.285446 
L 250.46025 273.285446 
L 251.641125 269.382446 
L 257.5455 269.382446 
L 258.726375 265.479445 
L 259.90725 265.479445 
L 261.088125 269.382446 
L 262.269 269.382446 
L 263.449875 265.479445 
L 264.63075 265.479445 
L 265.811625 269.382446 
L 277.620375 269.382446 
L 278.80125 265.479445 
L 282.343875 265.479445 
L 283.52475 261.576445 
L 284.705625 261.576445 
L 285.8865 265.479445 
L 287.067375 261.576445 
L 288.24825 261.576445 
L 290.61 269.382446 
L 300.057 269.382446 
L 301.237875 273.285446 
L 302.41875 273.285446 
L 303.599625 261.576445 
L 304.7805 257.673444 
L 307.14225 234.255442 
L 309.504 281.091447 
L 310.684875 288.897448 
L 313.046625 296.703449 
L 314.2275 292.800449 
L 315.408375 284.994448 
L 316.58925 273.285446 
L 317.770125 269.382446 
L 323.6745 269.382446 
L 324.855375 273.285446 
L 330.75975 273.285446 
L 331.940625 277.188447 
L 336.664125 277.188447 
L 337.845 273.285446 
L 340.20675 273.285446 
L 341.387625 269.382446 
L 344.93025 269.382446 
L 346.111125 265.479445 
L 352.0155 265.479445 
L 353.196375 269.382446 
L 354.37725 265.479445 
L 355.558125 265.479445 
L 356.739 269.382446 
L 361.4625 269.382446 
L 362.643375 265.479445 
L 363.82425 269.382446 
L 365.005125 269.382446 
L 366.186 265.479445 
L 367.366875 265.479445 
L 368.54775 269.382446 
L 369.728625 265.479445 
L 374.452125 265.479445 
L 375.633 261.576445 
L 379.175625 261.576445 
L 380.3565 265.479445 
L 381.537375 261.576445 
L 382.71825 261.576445 
L 383.899125 265.479445 
L 385.08 265.479445 
L 386.260875 269.382446 
L 394.527 269.382446 
L 395.707875 273.285446 
L 398.069625 257.673444 
L 399.2505 253.770444 
L 400.431375 238.158442 
L 401.61225 238.158442 
L 402.793125 273.285446 
L 403.974 292.800449 
L 405.154875 296.703449 
L 407.516625 296.703449 
L 408.6975 292.800449 
L 409.878375 277.188447 
L 411.05925 273.285446 
L 412.240125 273.285446 
L 413.421 269.382446 
L 418.1445 269.382446 
L 419.325375 273.285446 
L 422.868 273.285446 
L 424.048875 277.188447 
L 428.772375 277.188447 
L 429.95325 273.285446 
L 432.315 273.285446 
L 433.495875 269.382446 
L 435.857625 269.382446 
L 437.0385 265.479445 
L 446.4855 265.479445 
L 447.666375 269.382446 
L 448.84725 265.479445 
L 450.028125 269.382446 
L 451.209 269.382446 
L 452.389875 265.479445 
L 453.57075 265.479445 
L 454.751625 269.382446 
L 455.9325 269.382446 
L 457.113375 265.479445 
L 458.29425 269.382446 
L 459.475125 269.382446 
L 460.656 265.479445 
L 465.3795 265.479445 
L 466.560375 261.576445 
L 468.922125 261.576445 
L 470.103 265.479445 
L 471.283875 261.576445 
L 472.46475 261.576445 
L 473.645625 265.479445 
L 474.8265 265.479445 
L 476.007375 269.382446 
L 486.63525 269.382446 
L 490.177875 245.964443 
L 491.35875 234.255442 
L 492.539625 249.867443 
L 493.7205 284.994448 
L 494.901375 296.703449 
L 496.08225 296.703449 
L 497.263125 300.60645 
L 498.444 296.703449 
L 499.624875 288.897448 
L 500.80575 277.188447 
L 501.986625 269.382446 
L 509.071875 269.382446 
L 510.25275 273.285446 
L 511.433625 269.382446 
L 513.795375 277.188447 
L 514.97625 273.285446 
L 516.157125 277.188447 
L 518.59425 277.188447 
L 518.59425 277.188447 
" clip-path="url(#p4e262f8b98)" style="fill: none; stroke: #42949e; stroke-width: 0.75; stroke-linecap: square"/>
   </g>
   <g id="patch_9">
    <path d="M 33.17925 303.924 
L 33.17925 230.937891 
" style="fill: none; stroke: #4d4d4d; stroke-width: 0.8; stroke-linejoin: miter; stroke-linecap: square"/>
   </g>
   <g id="patch_10">
    <path d="M 33.17925 303.924 
L 505.52925 303.924 
" style="fill: none; stroke: #4d4d4d; stroke-width: 0.8; stroke-linejoin: miter; stroke-linecap: square"/>
   </g>
   <g id="text_27">
    <text style="font-weight: 700; font-size: 9px; font-family: 'Arial', 'Helvetica', 'Microsoft YaHei', 'SimHei', 'Noto Sans CJK SC', 'DejaVu Sans', sans-serif; text-anchor: start; fill: #272727" x="7.2" y="227.702075" transform="rotate(-0 7.2 227.702075)">c</text>
   </g>
   <g id="text_28">
    <text style="font-size: 9.6px; font-family: 'Arial', 'Helvetica', 'Microsoft YaHei', 'SimHei', 'Noto Sans CJK SC', 'DejaVu Sans', sans-serif; text-anchor: start; fill: #272727" x="33.17925" y="227.937891" transform="rotate(-0 33.17925 227.937891)">100 Hz / 6 bit  |  LSB 156.2 µV</text>
   </g>
  </g>
  <g id="text_29">
   <text style="font-size: 9.5px; font-family: 'Arial', 'Helvetica', 'Microsoft YaHei', 'SimHei', 'Noto Sans CJK SC', 'DejaVu Sans', sans-serif; text-anchor: middle" x="259.82925" y="14.115703" transform="rotate(-0 259.82925 14.115703)">Representative ECG after virtual acquisition</text>
  </g>
 </g>
 <defs>
  <clipPath id="p9767d9b3af">
   <rect x="33.17925" y="41.885391" width="472.35" height="72.986109"/>
  </clipPath>
  <clipPath id="p9fb868b82a">
   <rect x="33.17925" y="136.411641" width="472.35" height="72.986109"/>
  </clipPath>
  <clipPath id="p4e262f8b98">
   <rect x="33.17925" y="230.937891" width="472.35" height="72.986109"/>
  </clipPath>
 </defs>
</svg>
